ISO-10303-21;
HEADER;
FILE_DESCRIPTION(('CATIA V5 STEP Exchange'),'2;1');

FILE_NAME('C:\\Users\\anubh\\Desktop\\Trapezoid.stp','2026-09-10T18:26:30+00:00',('none'),('none'),'CATIA Version 5 Release 20 GA (IN-10)','CATIA V5 STEP AP203','none');

FILE_SCHEMA(('CONFIG_CONTROL_DESIGN'));

ENDSEC;
/* file written by CATIA V5R20 */
DATA;
#5=PRODUCT('Trapezoid','','',(#2)) ;
#1=APPLICATION_CONTEXT('configuration controlled 3D design of mechanical parts and assemblies') ;
#14=PRODUCT_DEFINITION('',' ',#6,#3) ;
#16=SECURITY_CLASSIFICATION(' ',' ',#15) ;
#15=SECURITY_CLASSIFICATION_LEVEL('unclassified') ;
#47=CARTESIAN_POINT(' ',(0.,0.,0.)) ;
#52=CARTESIAN_POINT('Axis2P3D Location',(25.,50.,85.1088676453)) ;
#57=CARTESIAN_POINT('Line Origine',(30.,50.,85.1088676453)) ;
#61=CARTESIAN_POINT('Vertex',(30.,50.,60.1088676453)) ;
#63=CARTESIAN_POINT('Vertex',(30.,50.,110.108867645)) ;
#66=CARTESIAN_POINT('Axis2P3D Location',(25.,50.,60.1088676453)) ;
#70=CARTESIAN_POINT('Vertex',(20.,50.,60.1088676453)) ;
#73=CARTESIAN_POINT('Line Origine',(20.,50.,85.1088676453)) ;
#77=CARTESIAN_POINT('Vertex',(20.,50.,110.108867645)) ;
#80=CARTESIAN_POINT('Axis2P3D Location',(25.,50.,110.108867645)) ;
#92=CARTESIAN_POINT('Axis2P3D Location',(25.,50.,60.1088676453)) ;
#97=CARTESIAN_POINT('Axis2P3D Location',(25.,50.,110.108867645)) ;
#109=CARTESIAN_POINT('Axis2P3D Location',(0.,25.,60.1088676453)) ;
#114=CARTESIAN_POINT('Line Origine',(25.,75.,60.1088676453)) ;
#118=CARTESIAN_POINT('Vertex',(0.,75.,60.1088676453)) ;
#120=CARTESIAN_POINT('Vertex',(50.,75.,60.1088676453)) ;
#123=CARTESIAN_POINT('Line Origine',(0.,50.,60.1088676453)) ;
#127=CARTESIAN_POINT('Vertex',(0.,25.,60.1088676453)) ;
#130=CARTESIAN_POINT('Line Origine',(25.,25.,60.1088676453)) ;
#134=CARTESIAN_POINT('Vertex',(50.,25.,60.1088676453)) ;
#137=CARTESIAN_POINT('Line Origine',(50.,50.,60.1088676453)) ;
#153=CARTESIAN_POINT('Axis2P3D Location',(50.,0.,0.)) ;
#158=CARTESIAN_POINT('Line Origine',(50.,50.,0.)) ;
#162=CARTESIAN_POINT('Vertex',(50.,0.,0.)) ;
#164=CARTESIAN_POINT('Vertex',(50.,100.,0.)) ;
#167=CARTESIAN_POINT('Line Origine',(50.,87.5,30.0544338226)) ;
#172=CARTESIAN_POINT('Line Origine',(50.,12.5,30.0544338226)) ;
#184=CARTESIAN_POINT('Axis2P3D Location',(0.,0.,0.)) ;
#189=CARTESIAN_POINT('Line Origine',(0.,12.5,30.0544338226)) ;
#193=CARTESIAN_POINT('Vertex',(0.,0.,0.)) ;
#196=CARTESIAN_POINT('Line Origine',(0.,87.5,30.0544338226)) ;
#200=CARTESIAN_POINT('Vertex',(0.,100.,0.)) ;
#203=CARTESIAN_POINT('Line Origine',(0.,50.,0.)) ;
#215=CARTESIAN_POINT('Axis2P3D Location',(0.,0.,0.)) ;
#220=CARTESIAN_POINT('Line Origine',(25.,0.,0.)) ;
#232=CARTESIAN_POINT('Axis2P3D Location',(0.,75.,60.1088676453)) ;
#237=CARTESIAN_POINT('Line Origine',(25.,100.,7.1054273576E-015)) ;
#249=CARTESIAN_POINT('Axis2P3D Location',(0.,100.,0.)) ;
#261=CARTESIAN_POINT('Axis2P3D Location',(0.,0.,110.108867645)) ;
#270=CARTESIAN_POINT('Axis2P3D Location',(25.,50.,110.108867645)) ;
#274=CARTESIAN_POINT('Vertex',(28.,50.,110.108867645)) ;
#276=CARTESIAN_POINT('Vertex',(22.,50.,110.108867645)) ;
#279=CARTESIAN_POINT('Axis2P3D Location',(25.,50.,110.108867645)) ;
#289=CARTESIAN_POINT('Axis2P3D Location',(25.,50.,60.6088676453)) ;
#294=CARTESIAN_POINT('Line Origine',(28.,50.,60.6088676453)) ;
#298=CARTESIAN_POINT('Vertex',(28.,50.,11.1088676453)) ;
#301=CARTESIAN_POINT('Line Origine',(22.,50.,60.6088676453)) ;
#305=CARTESIAN_POINT('Vertex',(22.,50.,11.1088676453)) ;
#308=CARTESIAN_POINT('Axis2P3D Location',(25.,50.,11.1088676453)) ;
#320=CARTESIAN_POINT('Axis2P3D Location',(25.,50.,11.1088676453)) ;
#332=CARTESIAN_POINT('Axis2P3D Location',(0.,0.,11.1088676453)) ;
#53=DIRECTION('Axis2P3D Direction',(0.,-0.,1.)) ;
#54=DIRECTION('Axis2P3D XDirection',(1.,0.,0.)) ;
#58=DIRECTION('Vector Direction',(0.,0.,1.)) ;
#67=DIRECTION('Axis2P3D Direction',(0.,-0.,1.)) ;
#74=DIRECTION('Vector Direction',(0.,0.,1.)) ;
#81=DIRECTION('Axis2P3D Direction',(0.,-0.,1.)) ;
#93=DIRECTION('Axis2P3D Direction',(0.,-0.,1.)) ;
#98=DIRECTION('Axis2P3D Direction',(0.,-0.,1.)) ;
#110=DIRECTION('Axis2P3D Direction',(0.,0.,-1.)) ;
#111=DIRECTION('Axis2P3D XDirection',(0.,1.,0.)) ;
#115=DIRECTION('Vector Direction',(1.,0.,0.)) ;
#124=DIRECTION('Vector Direction',(0.,1.,0.)) ;
#131=DIRECTION('Vector Direction',(1.,0.,0.)) ;
#138=DIRECTION('Vector Direction',(0.,1.,0.)) ;
#154=DIRECTION('Axis2P3D Direction',(1.,0.,0.)) ;
#155=DIRECTION('Axis2P3D XDirection',(0.,1.,0.)) ;
#159=DIRECTION('Vector Direction',(0.,-1.,0.)) ;
#168=DIRECTION('Vector Direction',(0.,0.384021588711,-0.923324113951)) ;
#173=DIRECTION('Vector Direction',(0.,0.384021588711,0.923324113951)) ;
#185=DIRECTION('Axis2P3D Direction',(1.,0.,0.)) ;
#186=DIRECTION('Axis2P3D XDirection',(0.,1.,0.)) ;
#190=DIRECTION('Vector Direction',(0.,0.384021588711,0.923324113951)) ;
#197=DIRECTION('Vector Direction',(0.,0.384021588711,-0.923324113951)) ;
#204=DIRECTION('Vector Direction',(0.,-1.,0.)) ;
#216=DIRECTION('Axis2P3D Direction',(0.,0.923324113951,-0.384021588711)) ;
#217=DIRECTION('Axis2P3D XDirection',(0.,0.384021588711,0.923324113951)) ;
#221=DIRECTION('Vector Direction',(1.,0.,0.)) ;
#233=DIRECTION('Axis2P3D Direction',(0.,-0.923324113951,-0.384021588711)) ;
#234=DIRECTION('Axis2P3D XDirection',(0.,0.384021588711,-0.923324113951)) ;
#238=DIRECTION('Vector Direction',(1.,0.,0.)) ;
#250=DIRECTION('Axis2P3D Direction',(-0.,0.,1.)) ;
#251=DIRECTION('Axis2P3D XDirection',(0.,-1.,0.)) ;
#262=DIRECTION('Axis2P3D Direction',(0.,0.,1.)) ;
#263=DIRECTION('Axis2P3D XDirection',(1.,0.,0.)) ;
#271=DIRECTION('Axis2P3D Direction',(0.,0.,1.)) ;
#280=DIRECTION('Axis2P3D Direction',(0.,0.,1.)) ;
#290=DIRECTION('Axis2P3D Direction',(0.,0.,1.)) ;
#291=DIRECTION('Axis2P3D XDirection',(1.,0.,0.)) ;
#295=DIRECTION('Vector Direction',(0.,0.,1.)) ;
#302=DIRECTION('Vector Direction',(0.,0.,1.)) ;
#309=DIRECTION('Axis2P3D Direction',(0.,0.,1.)) ;
#321=DIRECTION('Axis2P3D Direction',(0.,0.,1.)) ;
#333=DIRECTION('Axis2P3D Direction',(0.,0.,1.)) ;
#334=DIRECTION('Axis2P3D XDirection',(1.,0.,0.)) ;
#48=AXIS2_PLACEMENT_3D(' ',#47,$,$) ;
#55=AXIS2_PLACEMENT_3D('Cylinder Axis2P3D',#52,#53,#54) ;
#68=AXIS2_PLACEMENT_3D('Circle Axis2P3D',#66,#67,$) ;
#82=AXIS2_PLACEMENT_3D('Circle Axis2P3D',#80,#81,$) ;
#94=AXIS2_PLACEMENT_3D('Circle Axis2P3D',#92,#93,$) ;
#99=AXIS2_PLACEMENT_3D('Circle Axis2P3D',#97,#98,$) ;
#112=AXIS2_PLACEMENT_3D('Plane Axis2P3D',#109,#110,#111) ;
#156=AXIS2_PLACEMENT_3D('Plane Axis2P3D',#153,#154,#155) ;
#187=AXIS2_PLACEMENT_3D('Plane Axis2P3D',#184,#185,#186) ;
#218=AXIS2_PLACEMENT_3D('Plane Axis2P3D',#215,#216,#217) ;
#235=AXIS2_PLACEMENT_3D('Plane Axis2P3D',#232,#233,#234) ;
#252=AXIS2_PLACEMENT_3D('Plane Axis2P3D',#249,#250,#251) ;
#264=AXIS2_PLACEMENT_3D('Plane Axis2P3D',#261,#262,#263) ;
#272=AXIS2_PLACEMENT_3D('Circle Axis2P3D',#270,#271,$) ;
#281=AXIS2_PLACEMENT_3D('Circle Axis2P3D',#279,#280,$) ;
#292=AXIS2_PLACEMENT_3D('Cylinder Axis2P3D',#289,#290,#291) ;
#310=AXIS2_PLACEMENT_3D('Circle Axis2P3D',#308,#309,$) ;
#322=AXIS2_PLACEMENT_3D('Circle Axis2P3D',#320,#321,$) ;
#335=AXIS2_PLACEMENT_3D('Plane Axis2P3D',#332,#333,#334) ;
#40=PRODUCT_DEFINITION_SHAPE(' ',' ',#14) ;
#31=APPROVAL_PERSON_ORGANIZATION(#25,#21,#19) ;
#25=PERSON_AND_ORGANIZATION(#22,#23) ;
#22=PERSON(' ',' ',' ',$,$,$) ;
#23=ORGANIZATION(' ',' ',' ') ;
#21=APPROVAL(#20,' ') ;
#20=APPROVAL_STATUS('not_yet_approved') ;
#19=APPROVAL_ROLE('APPROVER') ;
#13=DATE_AND_TIME(#11,#12) ;
#12=LOCAL_TIME(23,56,29.,#10) ;
#10=COORDINATED_UNIVERSAL_TIME_OFFSET(0,0,.AHEAD.) ;
#86=ORIENTED_EDGE('',*,*,#65,.F.) ;
#87=ORIENTED_EDGE('',*,*,#72,.T.) ;
#88=ORIENTED_EDGE('',*,*,#79,.T.) ;
#89=ORIENTED_EDGE('',*,*,#84,.F.) ;
#103=ORIENTED_EDGE('',*,*,#79,.F.) ;
#104=ORIENTED_EDGE('',*,*,#96,.T.) ;
#105=ORIENTED_EDGE('',*,*,#65,.T.) ;
#106=ORIENTED_EDGE('',*,*,#101,.F.) ;
#143=ORIENTED_EDGE('',*,*,#122,.F.) ;
#144=ORIENTED_EDGE('',*,*,#129,.T.) ;
#145=ORIENTED_EDGE('',*,*,#136,.T.) ;
#146=ORIENTED_EDGE('',*,*,#141,.F.) ;
#149=ORIENTED_EDGE('',*,*,#96,.F.) ;
#150=ORIENTED_EDGE('',*,*,#72,.F.) ;
#178=ORIENTED_EDGE('',*,*,#166,.T.) ;
#179=ORIENTED_EDGE('',*,*,#171,.T.) ;
#180=ORIENTED_EDGE('',*,*,#141,.T.) ;
#181=ORIENTED_EDGE('',*,*,#176,.T.) ;
#209=ORIENTED_EDGE('',*,*,#195,.F.) ;
#210=ORIENTED_EDGE('',*,*,#129,.F.) ;
#211=ORIENTED_EDGE('',*,*,#202,.F.) ;
#212=ORIENTED_EDGE('',*,*,#207,.F.) ;
#226=ORIENTED_EDGE('',*,*,#136,.F.) ;
#227=ORIENTED_EDGE('',*,*,#195,.T.) ;
#228=ORIENTED_EDGE('',*,*,#224,.T.) ;
#229=ORIENTED_EDGE('',*,*,#176,.F.) ;
#243=ORIENTED_EDGE('',*,*,#241,.F.) ;
#244=ORIENTED_EDGE('',*,*,#202,.T.) ;
#245=ORIENTED_EDGE('',*,*,#122,.T.) ;
#246=ORIENTED_EDGE('',*,*,#171,.F.) ;
#255=ORIENTED_EDGE('',*,*,#224,.F.) ;
#256=ORIENTED_EDGE('',*,*,#207,.T.) ;
#257=ORIENTED_EDGE('',*,*,#241,.T.) ;
#258=ORIENTED_EDGE('',*,*,#166,.F.) ;
#267=ORIENTED_EDGE('',*,*,#84,.T.) ;
#268=ORIENTED_EDGE('',*,*,#101,.T.) ;
#285=ORIENTED_EDGE('',*,*,#278,.F.) ;
#286=ORIENTED_EDGE('',*,*,#283,.F.) ;
#314=ORIENTED_EDGE('',*,*,#300,.F.) ;
#315=ORIENTED_EDGE('',*,*,#278,.T.) ;
#316=ORIENTED_EDGE('',*,*,#307,.T.) ;
#317=ORIENTED_EDGE('',*,*,#312,.F.) ;
#326=ORIENTED_EDGE('',*,*,#307,.F.) ;
#327=ORIENTED_EDGE('',*,*,#283,.T.) ;
#328=ORIENTED_EDGE('',*,*,#300,.T.) ;
#329=ORIENTED_EDGE('',*,*,#324,.F.) ;
#338=ORIENTED_EDGE('',*,*,#312,.T.) ;
#339=ORIENTED_EDGE('',*,*,#324,.T.) ;
#151=FACE_BOUND('',#148,.T.) ;
#287=FACE_BOUND('',#284,.T.) ;
#51=CLOSED_SHELL('Closed Shell',(#91,#108,#152,#183,#214,#231,#248,#260,#288,#319,#331,#341)) ;
#59=VECTOR('Line Direction',#58,1.) ;
#75=VECTOR('Line Direction',#74,1.) ;
#116=VECTOR('Line Direction',#115,1.) ;
#125=VECTOR('Line Direction',#124,1.) ;
#132=VECTOR('Line Direction',#131,1.) ;
#139=VECTOR('Line Direction',#138,1.) ;
#160=VECTOR('Line Direction',#159,1.) ;
#169=VECTOR('Line Direction',#168,1.) ;
#174=VECTOR('Line Direction',#173,1.) ;
#191=VECTOR('Line Direction',#190,1.) ;
#198=VECTOR('Line Direction',#197,1.) ;
#205=VECTOR('Line Direction',#204,1.) ;
#222=VECTOR('Line Direction',#221,1.) ;
#239=VECTOR('Line Direction',#238,1.) ;
#296=VECTOR('Line Direction',#295,1.) ;
#303=VECTOR('Line Direction',#302,1.) ;
#343=ADVANCED_BREP_SHAPE_REPRESENTATION('NONE',(#342),#46) ;
#49=SHAPE_REPRESENTATION(' ',(#48),#46) ;
#91=ADVANCED_FACE('PartBody',(#90),#56,.T.) ;
#108=ADVANCED_FACE('PartBody',(#107),#56,.T.) ;
#152=ADVANCED_FACE('PartBody',(#147,#151),#113,.F.) ;
#183=ADVANCED_FACE('PartBody',(#182),#157,.T.) ;
#214=ADVANCED_FACE('PartBody',(#213),#188,.F.) ;
#231=ADVANCED_FACE('PartBody',(#230),#219,.F.) ;
#248=ADVANCED_FACE('PartBody',(#247),#236,.F.) ;
#260=ADVANCED_FACE('PartBody',(#259),#253,.F.) ;
#288=ADVANCED_FACE('PartBody',(#269,#287),#265,.T.) ;
#319=ADVANCED_FACE('PartBody',(#318),#293,.F.) ;
#331=ADVANCED_FACE('PartBody',(#330),#293,.F.) ;
#341=ADVANCED_FACE('PartBody',(#340),#336,.T.) ;
#4=APPLICATION_PROTOCOL_DEFINITION('international standard','config_control_design',1994,#1) ;
#32=APPROVAL_DATE_TIME(#13,#21) ;
#342=MANIFOLD_SOLID_BREP('PartBody',#51) ;
#11=CALENDAR_DATE(2026,10,9) ;
#30=CC_DESIGN_APPROVAL(#21,(#16,#6,#14)) ;
#18=CC_DESIGN_DATE_AND_TIME_ASSIGNMENT(#13,#17,(#16)) ;
#29=CC_DESIGN_DATE_AND_TIME_ASSIGNMENT(#13,#28,(#14)) ;
#17=DATE_TIME_ROLE('classification_date') ;
#28=DATE_TIME_ROLE('creation_date') ;
#27=CC_DESIGN_PERSON_AND_ORGANIZATION_ASSIGNMENT(#25,#26,(#16)) ;
#33=CC_DESIGN_PERSON_AND_ORGANIZATION_ASSIGNMENT(#25,#34,(#6)) ;
#35=CC_DESIGN_PERSON_AND_ORGANIZATION_ASSIGNMENT(#25,#36,(#6,#14)) ;
#37=CC_DESIGN_PERSON_AND_ORGANIZATION_ASSIGNMENT(#25,#38,(#5)) ;
#26=PERSON_AND_ORGANIZATION_ROLE('classification_officer') ;
#34=PERSON_AND_ORGANIZATION_ROLE('design_supplier') ;
#36=PERSON_AND_ORGANIZATION_ROLE('creator') ;
#38=PERSON_AND_ORGANIZATION_ROLE('design_owner') ;
#39=CC_DESIGN_SECURITY_CLASSIFICATION(#16,(#6)) ;
#69=CIRCLE('generated circle',#68,5.) ;
#83=CIRCLE('generated circle',#82,5.) ;
#95=CIRCLE('generated circle',#94,5.) ;
#100=CIRCLE('generated circle',#99,5.) ;
#273=CIRCLE('generated circle',#272,3.) ;
#282=CIRCLE('generated circle',#281,3.) ;
#311=CIRCLE('generated circle',#310,3.) ;
#323=CIRCLE('generated circle',#322,3.) ;
#344=SHAPE_REPRESENTATION_RELATIONSHIP(' ',' ',#49,#343) ;
#56=CYLINDRICAL_SURFACE('generated cylinder',#55,5.) ;
#293=CYLINDRICAL_SURFACE('generated cylinder',#292,3.) ;
#3=DESIGN_CONTEXT(' ',#1,'design') ;
#65=EDGE_CURVE('',#62,#64,#60,.T.) ;
#72=EDGE_CURVE('',#62,#71,#69,.T.) ;
#79=EDGE_CURVE('',#71,#78,#76,.T.) ;
#84=EDGE_CURVE('',#64,#78,#83,.T.) ;
#96=EDGE_CURVE('',#71,#62,#95,.T.) ;
#101=EDGE_CURVE('',#78,#64,#100,.T.) ;
#122=EDGE_CURVE('',#119,#121,#117,.T.) ;
#129=EDGE_CURVE('',#119,#128,#126,.F.) ;
#136=EDGE_CURVE('',#128,#135,#133,.T.) ;
#141=EDGE_CURVE('',#121,#135,#140,.F.) ;
#166=EDGE_CURVE('',#163,#165,#161,.F.) ;
#171=EDGE_CURVE('',#165,#121,#170,.F.) ;
#176=EDGE_CURVE('',#135,#163,#175,.F.) ;
#195=EDGE_CURVE('',#128,#194,#192,.F.) ;
#202=EDGE_CURVE('',#201,#119,#199,.F.) ;
#207=EDGE_CURVE('',#194,#201,#206,.F.) ;
#224=EDGE_CURVE('',#194,#163,#223,.T.) ;
#241=EDGE_CURVE('',#201,#165,#240,.T.) ;
#278=EDGE_CURVE('',#275,#277,#273,.T.) ;
#283=EDGE_CURVE('',#277,#275,#282,.T.) ;
#300=EDGE_CURVE('',#275,#299,#297,.F.) ;
#307=EDGE_CURVE('',#277,#306,#304,.F.) ;
#312=EDGE_CURVE('',#299,#306,#311,.T.) ;
#324=EDGE_CURVE('',#306,#299,#323,.T.) ;
#85=EDGE_LOOP('',(#86,#87,#88,#89)) ;
#102=EDGE_LOOP('',(#103,#104,#105,#106)) ;
#142=EDGE_LOOP('',(#143,#144,#145,#146)) ;
#148=EDGE_LOOP('',(#149,#150)) ;
#177=EDGE_LOOP('',(#178,#179,#180,#181)) ;
#208=EDGE_LOOP('',(#209,#210,#211,#212)) ;
#225=EDGE_LOOP('',(#226,#227,#228,#229)) ;
#242=EDGE_LOOP('',(#243,#244,#245,#246)) ;
#254=EDGE_LOOP('',(#255,#256,#257,#258)) ;
#266=EDGE_LOOP('',(#267,#268)) ;
#284=EDGE_LOOP('',(#285,#286)) ;
#313=EDGE_LOOP('',(#314,#315,#316,#317)) ;
#325=EDGE_LOOP('',(#326,#327,#328,#329)) ;
#337=EDGE_LOOP('',(#338,#339)) ;
#90=FACE_OUTER_BOUND('',#85,.T.) ;
#107=FACE_OUTER_BOUND('',#102,.T.) ;
#147=FACE_OUTER_BOUND('',#142,.T.) ;
#182=FACE_OUTER_BOUND('',#177,.T.) ;
#213=FACE_OUTER_BOUND('',#208,.T.) ;
#230=FACE_OUTER_BOUND('',#225,.T.) ;
#247=FACE_OUTER_BOUND('',#242,.T.) ;
#259=FACE_OUTER_BOUND('',#254,.T.) ;
#269=FACE_OUTER_BOUND('',#266,.T.) ;
#318=FACE_OUTER_BOUND('',#313,.T.) ;
#330=FACE_OUTER_BOUND('',#325,.T.) ;
#340=FACE_OUTER_BOUND('',#337,.T.) ;
#45=UNCERTAINTY_MEASURE_WITH_UNIT(LENGTH_MEASURE(0.005),#41,'distance_accuracy_value','CONFUSED CURVE UNCERTAINTY') ;
#60=LINE('Line',#57,#59) ;
#76=LINE('Line',#73,#75) ;
#117=LINE('Line',#114,#116) ;
#126=LINE('Line',#123,#125) ;
#133=LINE('Line',#130,#132) ;
#140=LINE('Line',#137,#139) ;
#161=LINE('Line',#158,#160) ;
#170=LINE('Line',#167,#169) ;
#175=LINE('Line',#172,#174) ;
#192=LINE('Line',#189,#191) ;
#199=LINE('Line',#196,#198) ;
#206=LINE('Line',#203,#205) ;
#223=LINE('Line',#220,#222) ;
#240=LINE('Line',#237,#239) ;
#297=LINE('Line',#294,#296) ;
#304=LINE('Line',#301,#303) ;
#2=MECHANICAL_CONTEXT(' ',#1,'mechanical') ;
#24=PERSONAL_ADDRESS(' ',' ',' ',' ',' ',' ',' ',' ',' ',' ',' ',' ',(#22),' ') ;
#113=PLANE('Plane',#112) ;
#157=PLANE('Plane',#156) ;
#188=PLANE('Plane',#187) ;
#219=PLANE('Plane',#218) ;
#236=PLANE('Plane',#235) ;
#253=PLANE('Plane',#252) ;
#265=PLANE('Plane',#264) ;
#336=PLANE('Plane',#335) ;
#43=PLANE_ANGLE_MEASURE_WITH_UNIT(PLANE_ANGLE_MEASURE(0.0174532925199),#42) ;
#7=PRODUCT_CATEGORY('part',$) ;
#9=PRODUCT_CATEGORY_RELATIONSHIP(' ',' ',#7,#8) ;
#6=PRODUCT_DEFINITION_FORMATION_WITH_SPECIFIED_SOURCE('',' ',#5,.NOT_KNOWN.) ;
#8=PRODUCT_RELATED_PRODUCT_CATEGORY('detail',$,(#5)) ;
#50=SHAPE_DEFINITION_REPRESENTATION(#40,#49) ;
#62=VERTEX_POINT('',#61) ;
#64=VERTEX_POINT('',#63) ;
#71=VERTEX_POINT('',#70) ;
#78=VERTEX_POINT('',#77) ;
#119=VERTEX_POINT('',#118) ;
#121=VERTEX_POINT('',#120) ;
#128=VERTEX_POINT('',#127) ;
#135=VERTEX_POINT('',#134) ;
#163=VERTEX_POINT('',#162) ;
#165=VERTEX_POINT('',#164) ;
#194=VERTEX_POINT('',#193) ;
#201=VERTEX_POINT('',#200) ;
#275=VERTEX_POINT('',#274) ;
#277=VERTEX_POINT('',#276) ;
#299=VERTEX_POINT('',#298) ;
#306=VERTEX_POINT('',#305) ;
#41=(LENGTH_UNIT()NAMED_UNIT(*)SI_UNIT(.MILLI.,.METRE.)) ;
#42=(NAMED_UNIT(*)PLANE_ANGLE_UNIT()SI_UNIT($,.RADIAN.)) ;
#44=(NAMED_UNIT(*)SI_UNIT($,.STERADIAN.)SOLID_ANGLE_UNIT()) ;
#46=(GEOMETRIC_REPRESENTATION_CONTEXT(3)GLOBAL_UNCERTAINTY_ASSIGNED_CONTEXT((#45))GLOBAL_UNIT_ASSIGNED_CONTEXT((#41,#42,#44))REPRESENTATION_CONTEXT(' ',' ')) ;
ENDSEC;
END-ISO-10303-21;
